<svg xmlns="http://www.w3.org/2000/svg" viewBox="0 0 180 180"><rect width="180" height="180" rx="38" fill="#1A1411"/><svg x="32" y="32" width="116" height="116" viewBox="0 0 359.4 359.4"><path fill="#bda06a" d="M179.7,0C80.61,0,0,80.61,0,179.7s80.61,179.7,179.7,179.7,179.7-80.61,179.7-179.7S278.79,0,179.7,0M319.35,81.07c8.67,12.25,15.78,25.68,21.02,40,.38,1.05-.32,2.21-1.43,2.33-8.5.97-17.2.6-25.51-1.15-8.98-1.89-17.66-5.41-25.51-10.27-1.04-.65-1.06-2.15-.07-2.87,10.52-7.62,20.12-17.01,28.7-28.08.71-.92,2.12-.91,2.79.04M184.03,10.52c0-.98.82-1.78,1.8-1.74,8.95.32,17.73,1.33,26.28,2.98,1.41.27,1.87,2.05.81,3.01-2.16,1.95-4.38,3.82-6.67,5.59-6.14,4.76-12.75,8.91-19.72,12.41-1.15.58-2.51-.28-2.51-1.56V10.52ZM184.03,99.7c0-.55.27-1.08.71-1.41,9.24-6.83,18.85-12.69,28.6-17.41.51-.25.99-.47,1.47-.7,4.57,2.69,9.66,4.57,14.87,5.47,2.46.42,4.96.64,7.47.64,3.08,0,6.17-.32,9.17-.95.95-.2,1.53-1.18,1.29-2.12l-1.28-5.04c-.23-.91-1.14-1.44-2.05-1.25-4.3.88-8.81.95-13.12.21-.88-.15-1.76-.34-2.63-.57-1.46-.37-1.79-2.3-.53-3.13,1.66-1.08,3.33-2.32,5.04-3.81,6.94-6.07,12.16-14.09,15.53-23.87.32-.92-.2-1.92-1.13-2.22l-4.96-1.57c-.9-.29-1.85.21-2.16,1.1-2.87,8.27-7.24,14.99-12.99,20.02-4.21,3.68-8.01,5.44-13.28,7.89-1.41.65-2.89,1.34-4.49,2.11-7.74,3.74-15.38,8.17-22.83,13.19-1.15.78-2.71-.03-2.71-1.42v-41.34c9.85-4.31,19.1-9.78,27.53-16.31,4.86-3.76,9.45-7.93,13.74-12.36,34.27,9.49,64.25,29.4,86.29,56.1.51.62.53,1.52.05,2.17-11.09,14.95-24.01,26.83-38.53,35.3-.28.16-.56.32-.83.48-1.35.77-2.96-.5-2.52-1.98.38-1.25.7-2.52.97-3.79,1.12-5.21,1.37-10.53.76-15.84-.11-.97-1.03-1.64-1.99-1.5l-5.14.78c-.93.14-1.55.99-1.45,1.93.47,4.3.25,8.6-.65,12.82-1.14,5.36-3.44,10.52-6.66,15.04-.2.28-.48.5-.81.62-1.64.62-3.31,1.24-5.07,1.89-5.94,2.19-12.68,4.67-21.31,8.55-14.45,6.48-28.42,14.3-41.69,23.29-1.15.78-2.7-.03-2.7-1.42v-49.56ZM184.03,164.07c0-.56.27-1.09.72-1.42,14.85-10.74,30.71-19.95,47.21-27.35,8.37-3.76,14.95-6.18,20.76-8.33,8.37-3.08,15.6-5.75,24.75-11.08.13-.08.26-.16.39-.24,10.06,7.32,21.66,12.53,33.77,15.08,6.01,1.27,12.08,1.9,18.15,1.9,4.17,0,8.34-.31,12.51-.91.86-.12,1.69.39,1.93,1.23,2.75,9.65,4.66,19.64,5.67,29.9.06.6-.2,1.21-.68,1.58-6.62,5.04-13.61,9.65-20.88,13.67-9.78,5.42-20.91,10.29-46.18,17.85-16.99,5.08-26.26,7.16-33.71,8.84-2.44.55-4.66,1.05-6.87,1.59-1.56.38-2.74-1.36-1.82-2.67,3.32-4.72,6.23-9.71,8.68-14.89.05-.12.12-.23.2-.33,2.08-2.72,4.51-5.11,7.26-7.1,5.39-3.9,10.98-5.55,15.17-6.23.91-.15,1.54-.99,1.43-1.91l-.61-5.16c-.11-.97-1.01-1.67-1.97-1.52-4.18.66-8.21,1.9-11.97,3.65-1.3.61-2.75-.51-2.43-1.91,1.14-5.03,1.89-10.16,2.24-15.35.06-.97-.69-1.8-1.66-1.85l-5.19-.26c-.94-.05-1.74.67-1.8,1.62-.62,9.22-2.61,18.21-5.93,26.76-4.98,12.84-13.05,24.63-23.35,34.17-.15.14-.33.25-.52.33-10.32,4.28-21.76,10.16-32.62,16.77-1.16.7-2.63-.12-2.63-1.47v-64.96ZM106.03,25.37c20.58-9.87,43.43-15.74,67.54-16.6.98-.04,1.8.76,1.8,1.74v52.72c0,1.45-1.66,2.25-2.8,1.35-.43-.35-.87-.68-1.31-1.02-6.17-4.63-10.69-6.47-18.19-9.52-2.83-1.15-6.03-2.45-9.99-4.17-10.56-4.59-18.19-7.9-26.41-13.29-3.85-2.52-7.54-5.32-11.04-8.33-.94-.81-.73-2.35.39-2.88M45.92,73.25c13.39-16.8,29.88-31.02,48.58-41.81.66-.38,1.49-.28,2.05.24,4.78,4.47,9.92,8.56,15.37,12.14,8.84,5.79,16.75,9.23,27.71,14,4.04,1.76,7.3,3.08,10.17,4.25,7.31,2.98,10.99,4.47,16.26,8.43,3.18,2.39,6.14,5.11,8.85,8.1.29.32.45.75.45,1.18v47.18c0,1.31-1.4,2.14-2.55,1.52-3.73-2.01-7.52-3.91-11.35-5.69-4.54-2.11-8.41-3.71-11.8-5.04-.26-.1-.49-.27-.67-.48-5.44-6.55-10.6-13.48-15.34-20.66-2.46-3.72-4.27-6.77-5.88-9.45-3.28-5.5-5.65-9.47-10.28-13.81-7.01-6.56-15.48-11.65-24.58-14.77-.92-.32-1.92.21-2.21,1.13l-1.56,4.96c-.28.9.21,1.84,1.1,2.15,7.9,2.74,15.24,7.16,21.33,12.85,3.74,3.5,5.63,6.67,8.77,11.92,1.65,2.76,3.52,5.89,6.08,9.78,1.03,1.55,2.07,3.09,3.14,4.62,1.06,1.52-.65,3.4-2.27,2.51-8.73-4.82-17.05-11.53-24.8-20.07-.64-.7-1.71-.77-2.42-.15l-3.9,3.44c-.72.64-.79,1.76-.14,2.48,11.07,12.21,23.28,21.07,36.31,26.34,2.1.85,4.31,1.64,6.65,2.48,4.8,1.72,10.78,3.87,18.83,7.61,5.69,2.64,11.28,5.57,16.69,8.7.54.31.87.89.87,1.51v27.24c0,1.38-1.53,2.2-2.69,1.44-1.91-1.25-3.85-2.46-5.8-3.63-8.75-5.24-19.76-10.47-32.73-15.55-11.81-4.62-20.57-7.27-33.83-11.28-5.2-1.57-9.45-2.81-13.01-3.81-.25-.07-.47-.19-.67-.36-6.59-5.77-12.68-12.13-18.09-18.94-9.76-12.28-17.44-26.07-22.91-41.01-.21-.58-.1-1.23.28-1.71M24.83,107.15c3.63-7.72,7.83-15.13,12.53-22.18.77-1.15,2.49-.95,3.03.32,5.5,13,12.65,25.1,21.37,36.07,1.25,1.57,2.54,3.12,3.86,4.64,1.16,1.34-.17,3.34-1.85,2.77-.7-.24-1.44-.5-2.23-.78-12.39-4.45-24.51-10.73-36.11-18.64-.71-.48-.97-1.42-.6-2.2M10.11,157.45c1.76-13.49,5.1-26.49,9.82-38.8.4-1.04,1.66-1.42,2.58-.8,11.61,7.7,23.73,13.85,36.1,18.3,5.52,1.99,8.88,2.85,13.95,4.15,5.12,1.32,12.12,3.12,25.24,7.08,13.06,3.95,21.69,6.56,33.18,11.05,12.53,4.91,23.1,9.92,31.44,14.91,4.18,2.5,8.27,5.2,12.22,8.04.46.33.72.86.72,1.42v34.29c-12.2-6.85-24.76-12.17-37.49-15.86-.12-.04-.24-.08-.35-.14-6.54-3.55-12.28-8.23-17.07-13.94-4.47-5.33-7.93-11.34-10.29-17.86-.32-.89-1.27-1.37-2.17-1.07l-4.94,1.63c-.92.3-1.43,1.31-1.1,2.23,2.71,7.55,6.69,14.49,11.86,20.65.21.25.43.5.64.75,1.03,1.19.08,3.01-1.48,2.85-.86-.09-1.71-.17-2.57-.25-6.16-.59-13.13-1.26-25.84-4.07-14-3.1-29.86-6.61-48.08-16.06-9.1-4.73-17.74-10.41-25.74-16.89-.47-.38-.72-.99-.64-1.6M145.19,347.23C67.37,331.22,8.66,262.19,8.66,179.7c0-2.6.07-5.19.19-7.76.06-1.38,1.65-2.11,2.76-1.29,6.63,4.85,13.62,9.2,20.89,12.98,5.4,2.8,10.63,5.11,15.68,7.05-.82.17-1.64.33-2.45.51-5.28,1.2-10.54,2.69-15.68,4.44-.91.31-1.39,1.32-1.07,2.23l1.73,4.9c.32.9,1.29,1.36,2.19,1.05,4.83-1.64,9.78-3.04,14.74-4.17,6.14-1.39,12.44-2.38,18.73-2.96.21-.02.42,0,.62.05,5.61,1.49,10.88,2.66,15.72,3.73,13.22,2.92,20.48,3.62,26.88,4.24,5.77.55,10.76,1.03,19.13,3.06,15.58,3.76,30.97,10.12,45.8,18.87.53.31.86.89.86,1.51v42.92c0,.88-.65,1.59-1.52,1.71-21.24,2.87-37.67,21.11-37.67,43.13,0,10.9,4.03,20.88,10.68,28.52,1.09,1.25-.04,3.16-1.66,2.83M179.7,350.74c-19.22,0-34.86-15.64-34.86-34.86s15.64-34.86,34.86-34.86,34.86,15.64,34.86,34.86-15.64,34.86-34.86,34.86M214.21,347.23c-1.63.33-2.76-1.57-1.67-2.83,6.65-7.64,10.68-17.62,10.68-28.52,0-22.01-16.43-40.26-37.67-43.13-.87-.12-1.52-.84-1.52-1.71v-27.68c0-.59.3-1.14.79-1.46,14.46-9.4,30.65-17.75,43.92-22.57,8.97-3.26,14.27-4.45,21.61-6.1,7.58-1.7,17.01-3.82,34.29-8.99,12.86-3.84,22.18-7.03,29.57-9.96.49-.19,1.03-.15,1.48.12,3.44,1.99,7.02,3.74,10.7,5.16,6.62,2.57,13.55,4.18,20.67,4.84,1,.09,1.73,1,1.58,1.99-11.07,70.35-65.18,126.59-134.44,140.84M348.23,195.81c-6.45-.57-12.72-2.01-18.7-4.33-.35-.14-.7-.28-1.06-.42-1.37-.56-1.43-2.48-.11-3.16,1.44-.74,2.82-1.48,4.18-2.23,5.3-2.93,10.46-6.16,15.45-9.63,1.15-.8,2.71,0,2.73,1.39.01.75.02,1.51.02,2.27,0,4.89-.22,9.73-.62,14.52-.08.95-.93,1.68-1.89,1.6"/></svg></svg>